<?xml version="1.0" encoding="UTF-8"?>
<svg xmlns="http://www.w3.org/2000/svg" xmlns:xlink="http://www.w3.org/1999/xlink" width="3422" height="1447" viewBox="0 0 3422 1447">
<path fill-rule="nonzero" fill="rgb(0%, 0%, 0%)" fill-opacity="1" d="M 1630.410156 90.800781 C 1677.890625 90.800781 1731.019531 90.839844 1783.738281 90.949219 L 1783.71875 90.960938 L 1783.71875 495.234375 L 1184.441406 495.160156 L 1184.429688 495.15625 C 1184.710938 494.199219 1184.960938 493.230469 1185.210938 492.253906 L 1184 470.960938 C 1170.890625 434.710938 1137.730469 411.210938 1084.53125 400.5 L 1084.519531 400.5 L 1366.289062 121.378906 C 1389.890625 104.960938 1427.371094 90.910156 1479.179688 90.878906 C 1506.390625 90.871094 1562.660156 90.800781 1630.410156 90.800781 Z M 1858.480469 91.160156 L 2409.96875 92.929688 L 2409.96875 495.308594 L 1858.480469 495.242188 Z M 2484.75 93.179688 L 2767.320312 94.078125 C 2811.128906 94.859375 2846.738281 112.648438 2849.871094 126.640625 L 2954.421875 396.46875 C 2957.710938 427.128906 2941.71875 447.03125 2921.808594 455.429688 C 2901.230469 464.117188 2835.738281 492.507812 2722.28125 495.347656 L 2484.75 495.316406 L 2484.730469 495.324219 C 2484.71875 361.269531 2484.71875 227.21875 2484.71875 93.179688 Z M 1641.339844 563.140625 C 1666.71875 563.253906 1687.820312 564.808594 1704.671875 567.800781 C 1721.519531 570.792969 1730.261719 574.542969 1730.898438 579.046875 L 1730.078125 581.207031 C 1726.210938 585.558594 1714.871094 589.035156 1696.070312 591.644531 C 1680.148438 593.835938 1661.851562 594.929688 1641.179688 594.929688 C 1637.269531 594.929688 1633.269531 594.890625 1629.191406 594.8125 C 1604.710938 594.125 1585.128906 592.109375 1570.449219 588.769531 C 1565.75 587.691406 1561.871094 586.515625 1558.828125 585.242188 L 1554.988281 583.277344 C 1552.878906 581.929688 1551.808594 580.519531 1551.789062 579.046875 C 1552.429688 574.542969 1561.171875 570.792969 1578.019531 567.800781 C 1594.871094 564.808594 1615.980469 563.253906 1641.339844 563.140625 Z M 2276.640625 563.550781 C 2290.359375 563.738281 2298.351562 563.933594 2300.589844 564.144531 C 2305.589844 564.382812 2310.390625 564.691406 2314.980469 565.074219 C 2324.148438 565.835938 2332.480469 566.878906 2339.96875 568.210938 C 2347.449219 569.539062 2353.339844 571.019531 2357.628906 572.648438 C 2362.28125 574.75 2364.589844 576.058594 2364.570312 576.566406 C 2365.511719 577.496094 2366.050781 578.457031 2366.191406 579.457031 L 2365.378906 581.617188 C 2362.578125 583.960938 2360.460938 585.3125 2359.011719 585.679688 C 2357.050781 586.515625 2354.710938 587.308594 2352.011719 588.058594 C 2346.601562 589.5625 2339.71875 590.894531 2331.359375 592.054688 C 2327.160156 592.632812 2322.78125 593.132812 2318.25 593.558594 C 2316.179688 593.871094 2309 594.335938 2296.699219 594.960938 C 2290.230469 595.214844 2283.488281 595.339844 2276.480469 595.339844 C 2272.570312 595.339844 2268.570312 595.300781 2264.480469 595.222656 C 2259.050781 595.070312 2253.851562 594.851562 2248.890625 594.570312 C 2246.109375 594.507812 2239.21875 593.933594 2228.21875 592.847656 C 2219.761719 591.890625 2212.269531 590.667969 2205.738281 589.179688 C 2191.179688 585.589844 2185.128906 581.859375 2187.601562 577.984375 C 2188.679688 576.058594 2191.371094 574.277344 2195.648438 572.648438 C 2197.800781 571.835938 2200.339844 571.058594 2203.28125 570.316406 C 2204.300781 569.890625 2209.570312 568.875 2219.089844 567.265625 C 2234.898438 564.890625 2254.089844 563.652344 2276.640625 563.550781 Z M 241.847656 527.898438 L 241.847656 527.917969 C 241.867188 527.902344 241.890625 527.902344 241.910156 527.902344 C 260.164062 527.902344 273.972656 529.734375 282.992188 534.121094 C 288.085938 536.597656 290.644531 538.640625 291.042969 539.527344 L 294.960938 545.078125 C 296.867188 549.1875 297.855469 553.890625 297.226562 559.109375 C 295.207031 575.886719 287.148438 593.105469 273.917969 610.980469 C 265.46875 622.394531 257.332031 631.636719 249.332031 638.570312 C 245.460938 641.929688 241.667969 644.699219 237.957031 646.898438 L 232.363281 649.855469 C 228.644531 651.570312 224.777344 652.648438 220.949219 653.816406 C 219.191406 654.355469 212.996094 655.917969 202.007812 656.25 C 172.960938 657.117188 140.234375 657.25 103.859375 658.199219 C 121.644531 620.230469 153.324219 566.390625 201.910156 530.109375 C 213.867188 529.019531 224.429688 528.324219 233.597656 528.027344 C 236.445312 527.9375 239.195312 527.898438 241.847656 527.898438 Z M 3153.410156 510.269531 L 3153.410156 510.289062 L 3153.480469 510.292969 C 3174.039062 577.226562 3187.101562 646.414062 3192.320312 716.574219 L 3192.25 716.582031 C 3186.230469 716.765625 3180.769531 716.855469 3175.871094 716.855469 C 3162.171875 716.855469 3152.859375 715.988281 3147.820312 714.675781 C 3143.289062 713.496094 3139.78125 711.425781 3137.378906 708.035156 C 3136.148438 706.285156 3135.058594 704.066406 3134.128906 701.378906 C 3133.589844 700.796875 3132.179688 695.460938 3130.371094 685.292969 C 3124.828125 654.175781 3121.359375 621.984375 3119.828125 588.789062 C 3119.449219 580.613281 3119.628906 572.789062 3120.019531 565.332031 L 3120.898438 554.636719 C 3121.679688 547.761719 3122.929688 541.683594 3124.648438 536.410156 L 3126.710938 531.160156 C 3128.21875 527.902344 3129.949219 525.0625 3131.941406 522.671875 C 3135.921875 517.910156 3140.730469 514.667969 3146.171875 512.507812 C 3148.199219 511.703125 3150.558594 510.828125 3153.410156 510.269531 Z M 24.140625 845.972656 L 24.140625 845.992188 C 27.078125 846.140625 29.800781 850.734375 32.304688 859.753906 C 34.808594 868.777344 36.527344 880.171875 37.457031 893.929688 L 37.773438 900.535156 C 38.15625 913.84375 37.519531 924.554688 35.847656 932.652344 C 34.410156 939.617188 32.457031 943.09375 30.007812 943.09375 C 29.609375 943.09375 29.160156 943.0625 28.769531 942.816406 C 25.785156 940.945312 23.1875 934.875 20.871094 924.777344 C 20.121094 921.515625 19.457031 917.945312 18.863281 914.078125 L 18.050781 908.109375 C 17.550781 904 17.140625 899.699219 16.878906 895.210938 C 16.074219 881.441406 16.386719 869.925781 17.753906 860.664062 C 19.117188 851.402344 21.25 846.503906 24.140625 845.972656 Z M 1484.070312 0 L 1484.019531 0.0117188 C 1342.121094 0 1311.738281 24.148438 1188.171875 138.050781 L 904.542969 396.058594 C 873.769531 434.140625 830.453125 460.035156 782.398438 469.25 L 276.335938 491.992188 C 115.722656 499.210938 53.722656 704.164062 53.722656 704.164062 C 48.734375 714.140625 48.675781 757.433594 50.820312 810.285156 L 50.820312 810.292969 C 37.941406 808.617188 24.914062 806.925781 11.734375 805.21875 L 11.699219 805.226562 C 11.210938 805.148438 10.714844 805.113281 10.210938 805.113281 C 4.570312 805.113281 0 809.683594 0 815.320312 C 0 815.8125 0.0351562 816.296875 0.101562 816.769531 L 0.0664062 816.773438 C 3.457031 875.105469 6.851562 933.4375 10.242188 991.769531 C 10.335938 993.378906 10.808594 994.941406 11.621094 996.332031 C 26.382812 1021.582031 41.207031 1046.929688 56.089844 1072.382812 C 57.921875 1075.515625 61.277344 1077.4375 64.902344 1077.4375 C 64.941406 1077.4375 64.988281 1077.4375 65.027344 1077.4375 L 229.667969 1132.207031 C 228.667969 1121.535156 228.039062 1110.691406 227.785156 1099.683594 C 227.4375 1048.570312 235.140625 1001.574219 250.890625 958.695312 C 258.457031 937.214844 267.722656 916.714844 278.691406 897.199219 C 309.089844 850.136719 329.375 823.082031 339.539062 816.03125 C 346.171875 805.625 373.386719 783.898438 421.179688 750.84375 C 440.78125 739.019531 461.230469 729.074219 482.523438 721.003906 C 525.117188 704.859375 571.097656 696.21875 620.46875 695.074219 C 621.574219 695.066406 622.679688 695.0625 623.777344 695.0625 C 673.613281 695.0625 719.507812 702.769531 761.457031 718.179688 C 813.441406 740.070312 843.453125 755.246094 851.488281 763.710938 C 870.015625 776.378906 887.5625 790.753906 904.121094 806.828125 C 937.6875 839.371094 964.640625 876.335938 984.976562 917.71875 C 1007.25 960.847656 1020.628906 1011.980469 1025.101562 1071.117188 L 1024.53125 1125.421875 C 1022.648438 1144.121094 1019.769531 1162.242188 1015.890625 1179.785156 L 1015.910156 1179.792969 C 1110.25 1184.074219 1110.300781 1184.855469 1110.300781 1184.855469 L 1110.300781 1184.863281 L 2283.179688 1182.910156 L 2283.199219 1182.914062 C 2277.390625 1156.332031 2274.148438 1128.585938 2273.480469 1099.683594 C 2273.140625 1048.570312 2280.839844 1001.574219 2296.589844 958.695312 C 2304.160156 937.214844 2313.421875 916.714844 2324.390625 897.199219 C 2354.789062 850.136719 2375.070312 823.082031 2385.238281 816.03125 C 2391.871094 805.625 2419.089844 783.898438 2466.878906 750.84375 C 2486.480469 739.019531 2506.929688 729.074219 2528.230469 721.003906 C 2570.820312 704.859375 2616.800781 696.21875 2666.171875 695.074219 C 2667.269531 695.066406 2668.378906 695.0625 2669.480469 695.0625 C 2719.308594 695.0625 2765.210938 702.769531 2807.160156 718.179688 C 2859.140625 740.070312 2889.148438 755.246094 2897.191406 763.710938 C 2915.71875 776.378906 2933.261719 790.753906 2949.820312 806.828125 C 2983.390625 839.371094 3010.339844 876.335938 3030.679688 917.71875 C 3052.949219 960.847656 3066.328125 1011.980469 3070.800781 1071.117188 L 3070.230469 1125.421875 C 3069.539062 1132.339844 3068.699219 1139.179688 3067.730469 1145.941406 L 3067.730469 1145.945312 C 3164.261719 1107.050781 3212.109375 1050.570312 3212.109375 1050.570312 C 3229.128906 1029.5 3246.140625 1008.433594 3263.171875 987.367188 C 3264.410156 985.828125 3265.121094 983.917969 3265.171875 981.9375 C 3266.488281 932.65625 3267.890625 880.601562 3269.359375 825.78125 C 3269.441406 822.621094 3267.871094 819.648438 3265.210938 817.941406 L 3235.519531 798.898438 L 3223.269531 791.039062 L 3223.269531 783.160156 C 3223.269531 763.191406 3222.640625 743.269531 3221.378906 723.417969 L 3221.410156 723.425781 L 3231.488281 761.0625 C 3233.390625 768.140625 3238.019531 774.175781 3244.371094 777.839844 C 3248.609375 780.285156 3253.378906 781.542969 3258.191406 781.542969 C 3260.578125 781.542969 3262.988281 781.230469 3265.339844 780.597656 C 3310.480469 768.503906 3355.609375 756.410156 3400.75 744.3125 C 3415.488281 740.363281 3424.238281 725.214844 3420.289062 710.464844 L 3281.480469 192.398438 C 3278.171875 180.050781 3267 171.910156 3254.800781 171.910156 C 3252.429688 171.910156 3250.03125 172.210938 3247.628906 172.859375 L 3179.929688 191 L 3112.21875 209.140625 C 3097.480469 213.089844 3088.730469 228.25 3092.679688 242.988281 L 3125.578125 365.789062 C 3117.070312 348.609375 3108.019531 331.671875 3098.441406 314.980469 L 3016.039062 171.378906 C 2932.179688 25.390625 2880.398438 14.53125 2712.050781 14.53125 L 1484.089844 0 Z M 1484.070312 0 "/>
<path fill-rule="nonzero" fill="rgb(0%, 0%, 0%)" fill-opacity="1" d="M 626.183594 871.003906 C 622.015625 871.003906 617.949219 871.402344 613.839844 871.636719 L 625.957031 1008 C 626.03125 1008 626.105469 1007.976562 626.183594 1007.976562 C 626.789062 1007.976562 627.335938 1008.140625 627.933594 1008.15625 L 638.558594 871.636719 C 634.433594 871.402344 630.359375 871.003906 626.183594 871.003906 Z M 589.074219 874.339844 C 518.8125 886.121094 459.566406 930.53125 427.597656 991.578125 L 555.539062 1044.433594 C 566.636719 1029 582.667969 1017.597656 601.3125 1012.015625 Z M 663.308594 874.339844 L 652.554688 1012.484375 C 671.070312 1018.394531 687 1030 697.832031 1045.648438 L 824.761719 991.5625 C 792.792969 930.53125 733.5625 886.128906 663.308594 874.339844 Z M 417.378906 1014.277344 C 414.40625 1021.929688 411.882812 1029.777344 409.757812 1037.800781 L 543.601562 1068.515625 C 543.800781 1067.902344 543.964844 1067.273438 544.171875 1066.667969 Z M 834.988281 1014.285156 L 708.640625 1068.121094 C 708.839844 1068.734375 709.023438 1069.347656 709.214844 1069.960938 L 842.609375 1037.808594 C 840.484375 1029.777344 837.960938 1021.929688 834.988281 1014.285156 Z M 626.183594 1082.6875 C 619.324219 1082.6875 613.730469 1088.265625 613.730469 1095.140625 C 613.730469 1102.011719 619.324219 1107.59375 626.183594 1107.59375 C 633.039062 1107.59375 638.636719 1102.011719 638.636719 1095.140625 C 638.636719 1088.265625 633.039062 1082.6875 626.183594 1082.6875 Z M 626.183594 1057.785156 C 646.777344 1057.785156 663.539062 1074.542969 663.539062 1095.140625 C 663.539062 1115.734375 646.777344 1132.496094 626.183594 1132.496094 C 605.585938 1132.496094 588.828125 1115.734375 588.828125 1095.140625 C 588.828125 1074.542969 605.585938 1057.785156 626.183594 1057.785156 Z M 626.183594 1032.878906 C 591.855469 1032.878906 563.921875 1060.804688 563.921875 1095.140625 C 563.921875 1129.464844 591.855469 1157.402344 626.183594 1157.402344 C 660.507812 1157.402344 688.441406 1129.464844 688.441406 1095.140625 C 688.441406 1060.804688 660.507812 1032.878906 626.183594 1032.878906 Z M 847.621094 1062.191406 L 713.289062 1094.566406 C 713.289062 1094.765625 713.347656 1094.941406 713.347656 1095.140625 C 713.347656 1114.996094 706.449219 1133.085938 695.277344 1147.738281 L 786.085938 1251.917969 C 825.757812 1211.46875 850.320312 1156.148438 850.320312 1095.140625 C 850.320312 1083.917969 849.214844 1072.976562 847.621094 1062.191406 Z M 404.742188 1062.214844 C 403.140625 1072.992188 402.046875 1083.921875 402.046875 1095.140625 C 402.046875 1156.203125 426.652344 1211.582031 466.398438 1252.042969 L 556.226562 1146.683594 C 545.542969 1132.214844 539.015625 1114.5 539.015625 1095.140625 C 539.015625 1094.574219 539.175781 1094.050781 539.183594 1093.488281 Z M 677.519531 1165.277344 C 676.988281 1165.667969 676.539062 1166.15625 676 1166.53125 L 747.65625 1283.230469 C 754.597656 1278.730469 761.328125 1273.96875 767.714844 1268.753906 Z M 573.808594 1164.40625 L 484.777344 1268.835938 C 491.160156 1274.050781 497.902344 1278.816406 504.851562 1283.304688 L 575.320312 1165.652344 C 574.789062 1165.269531 574.332031 1164.796875 573.808594 1164.40625 Z M 597.5 1177.082031 L 526.507812 1295.601562 C 556.585938 1310.617188 590.355469 1319.273438 626.183594 1319.273438 C 662.078125 1319.273438 695.90625 1310.585938 726.007812 1295.527344 L 653.535156 1177.496094 C 644.886719 1180.371094 635.796875 1182.304688 626.183594 1182.304688 C 616.082031 1182.304688 606.523438 1180.242188 597.5 1177.082031 Z M 626.183594 846.101562 C 763.71875 846.101562 875.226562 957.59375 875.226562 1095.140625 C 875.226562 1232.675781 763.71875 1344.179688 626.183594 1344.179688 C 488.644531 1344.179688 377.140625 1232.675781 377.140625 1095.140625 C 377.140625 957.59375 488.644531 846.101562 626.183594 846.101562 Z M 635.839844 743.84375 C 536.292969 743.84375 452.847656 775.75 385.5 839.570312 C 317.792969 904.214844 281.136719 985.097656 275.53125 1082.222656 C 274.691406 1183.484375 306.59375 1268.230469 371.242188 1336.453125 C 435.886719 1404.160156 516.769531 1440.816406 613.894531 1446.417969 C 615.195312 1446.429688 616.492188 1446.433594 617.789062 1446.433594 C 717.335938 1446.433594 800.78125 1414.527344 868.125 1350.710938 C 935.835938 1286.066406 972.492188 1205.183594 978.09375 1108.058594 L 976.558594 1060.28125 C 973.246094 1028.007812 965.996094 997.429688 954.796875 968.550781 L 935.503906 926.886719 C 920.824219 900.082031 903.117188 875.730469 882.382812 853.828125 C 817.738281 786.117188 736.855469 749.460938 639.734375 743.859375 C 638.433594 743.847656 637.136719 743.84375 635.839844 743.84375 Z M 635.839844 743.84375 "/>
<path fill-rule="nonzero" fill="rgb(0%, 0%, 0%)" fill-opacity="1" d="M 2671.878906 871.003906 C 2667.71875 871.003906 2663.648438 871.402344 2659.539062 871.636719 L 2671.660156 1008 C 2671.730469 1008 2671.808594 1007.976562 2671.878906 1007.976562 C 2672.488281 1007.976562 2673.039062 1008.140625 2673.628906 1008.15625 L 2684.261719 871.636719 C 2680.128906 871.402344 2676.058594 871.003906 2671.878906 871.003906 Z M 2634.769531 874.339844 C 2564.511719 886.121094 2505.269531 930.53125 2473.300781 991.578125 L 2601.238281 1044.433594 C 2612.339844 1029 2628.371094 1017.597656 2647.011719 1012.015625 Z M 2709.011719 874.339844 L 2698.25 1012.484375 C 2716.769531 1018.394531 2732.699219 1030 2743.53125 1045.648438 L 2870.460938 991.5625 C 2838.488281 930.53125 2779.261719 886.128906 2709.011719 874.339844 Z M 2463.078125 1014.277344 C 2460.109375 1021.929688 2457.578125 1029.777344 2455.460938 1037.800781 L 2589.300781 1068.515625 C 2589.5 1067.902344 2589.660156 1067.273438 2589.878906 1066.667969 Z M 2880.691406 1014.285156 L 2754.339844 1068.121094 C 2754.539062 1068.734375 2754.71875 1069.347656 2754.910156 1069.960938 L 2888.308594 1037.808594 C 2886.179688 1029.777344 2883.660156 1021.929688 2880.691406 1014.285156 Z M 2671.878906 1082.6875 C 2665.03125 1082.6875 2659.429688 1088.265625 2659.429688 1095.140625 C 2659.429688 1102.011719 2665.03125 1107.59375 2671.878906 1107.59375 C 2678.738281 1107.59375 2684.339844 1102.011719 2684.339844 1095.140625 C 2684.339844 1088.265625 2678.738281 1082.6875 2671.878906 1082.6875 Z M 2671.878906 1057.785156 C 2692.480469 1057.785156 2709.238281 1074.542969 2709.238281 1095.140625 C 2709.238281 1115.734375 2692.480469 1132.496094 2671.878906 1132.496094 C 2651.289062 1132.496094 2634.53125 1115.734375 2634.53125 1095.140625 C 2634.53125 1074.542969 2651.289062 1057.785156 2671.878906 1057.785156 Z M 2671.878906 1032.878906 C 2637.558594 1032.878906 2609.621094 1060.804688 2609.621094 1095.140625 C 2609.621094 1129.464844 2637.558594 1157.402344 2671.878906 1157.402344 C 2706.210938 1157.402344 2734.140625 1129.464844 2734.140625 1095.140625 C 2734.140625 1060.804688 2706.210938 1032.878906 2671.878906 1032.878906 Z M 2893.320312 1062.191406 L 2758.988281 1094.566406 C 2758.988281 1094.765625 2759.050781 1094.941406 2759.050781 1095.140625 C 2759.050781 1114.996094 2752.148438 1133.085938 2740.980469 1147.738281 L 2831.789062 1251.917969 C 2871.460938 1211.46875 2896.019531 1156.148438 2896.019531 1095.140625 C 2896.019531 1083.917969 2894.910156 1072.976562 2893.320312 1062.191406 Z M 2450.441406 1062.214844 C 2448.839844 1072.992188 2447.75 1083.921875 2447.75 1095.140625 C 2447.75 1156.203125 2472.351562 1211.582031 2512.101562 1252.042969 L 2601.929688 1146.683594 C 2591.238281 1132.214844 2584.71875 1114.5 2584.71875 1095.140625 C 2584.71875 1094.574219 2584.878906 1094.050781 2584.878906 1093.488281 Z M 2723.21875 1165.277344 C 2722.691406 1165.667969 2722.238281 1166.15625 2721.699219 1166.53125 L 2793.359375 1283.230469 C 2800.300781 1278.730469 2807.03125 1273.96875 2813.410156 1268.753906 Z M 2619.511719 1164.40625 L 2530.480469 1268.835938 C 2536.859375 1274.050781 2543.601562 1278.816406 2550.550781 1283.304688 L 2621.019531 1165.652344 C 2620.488281 1165.269531 2620.03125 1164.796875 2619.511719 1164.40625 Z M 2643.199219 1177.082031 L 2572.210938 1295.601562 C 2602.289062 1310.617188 2636.058594 1319.273438 2671.878906 1319.273438 C 2707.78125 1319.273438 2741.609375 1310.585938 2771.710938 1295.527344 L 2699.230469 1177.496094 C 2690.589844 1180.371094 2681.5 1182.304688 2671.878906 1182.304688 C 2661.78125 1182.304688 2652.230469 1180.242188 2643.199219 1177.082031 Z M 2671.878906 846.101562 C 2809.421875 846.101562 2920.929688 957.59375 2920.929688 1095.140625 C 2920.929688 1232.675781 2809.421875 1344.179688 2671.878906 1344.179688 C 2534.339844 1344.179688 2422.839844 1232.675781 2422.839844 1095.140625 C 2422.839844 957.59375 2534.339844 846.101562 2671.878906 846.101562 Z M 2681.539062 743.84375 C 2581.988281 743.84375 2498.550781 775.75 2431.199219 839.570312 C 2363.488281 904.214844 2326.839844 985.097656 2321.230469 1082.222656 C 2320.390625 1183.484375 2352.289062 1268.230469 2416.941406 1336.453125 C 2481.589844 1404.160156 2562.46875 1440.816406 2659.589844 1446.417969 C 2660.890625 1446.429688 2662.191406 1446.433594 2663.488281 1446.433594 C 2763.039062 1446.433594 2846.480469 1414.527344 2913.820312 1350.710938 C 2981.539062 1286.066406 3018.191406 1205.183594 3023.789062 1108.058594 L 3022.261719 1060.28125 C 3018.949219 1028.007812 3011.699219 997.429688 3000.5 968.550781 L 2981.199219 926.886719 C 2966.519531 900.082031 2948.820312 875.730469 2928.089844 853.828125 C 2863.441406 786.117188 2782.558594 749.460938 2685.429688 743.859375 C 2684.128906 743.847656 2682.839844 743.84375 2681.539062 743.84375 Z M 2681.539062 743.84375 "/>
</svg>
